<?xml version="1.0" encoding="UTF-8" standalone="no"?>
<svg
   xmlns:dc="http://purl.org/dc/elements/1.1/"
   xmlns:cc="http://creativecommons.org/ns#"
   xmlns:rdf="http://www.w3.org/1999/02/22-rdf-syntax-ns#"
   xmlns:svg="http://www.w3.org/2000/svg"
   xmlns="http://www.w3.org/2000/svg"
   xmlns:sodipodi="http://sodipodi.sourceforge.net/DTD/sodipodi-0.dtd"
   xmlns:inkscape="http://www.inkscape.org/namespaces/inkscape"
   inkscape:version="1.0 (4035a4fb49, 2020-05-01)"
   sodipodi:docname="profile3.svg"
   xml:space="preserve"
   style="enable-background:new 0 0 264 280;"
   viewBox="0 0 264 280"
   y="0px"
   x="0px"
   id="Layer_1"
   version="1.1"><metadata
   id="metadata183"><rdf:RDF><cc:Work
       rdf:about=""><dc:format>image/svg+xml</dc:format><dc:type
         rdf:resource="http://purl.org/dc/dcmitype/StillImage" /><dc:title></dc:title></cc:Work></rdf:RDF></metadata><defs
   id="defs181" /><sodipodi:namedview
   inkscape:current-layer="Layer_1"
   inkscape:window-maximized="0"
   inkscape:window-y="0"
   inkscape:window-x="0"
   inkscape:cy="153.51025"
   inkscape:cx="132"
   inkscape:zoom="2.9607143"
   showgrid="false"
   id="namedview179"
   inkscape:window-height="987"
   inkscape:window-width="1266"
   inkscape:pageshadow="2"
   inkscape:pageopacity="0"
   guidetolerance="10"
   gridtolerance="10"
   objecttolerance="10"
   borderopacity="1"
   bordercolor="#666666"
   pagecolor="#ffffff" />
<style
   id="style2"
   type="text/css">
	.st0{fill-rule:evenodd;clip-rule:evenodd;fill:#E6E6E6;}
	.st1{filter:url(#Adobe_OpacityMaskFilter);}
	.st2{fill-rule:evenodd;clip-rule:evenodd;fill:#FFFFFF;}
	.st3{mask:url(#mask-2_1_);}
	.st4{fill-rule:evenodd;clip-rule:evenodd;fill:#2C3E50;}
	.st5{filter:url(#Adobe_OpacityMaskFilter_1_);}
	.st6{mask:url(#mask-4_1_);}
	.st7{fill-rule:evenodd;clip-rule:evenodd;fill:#D0C6AC;}
	.st8{filter:url(#Adobe_OpacityMaskFilter_2_);}
	.st9{mask:url(#mask-6_1_);}
	.st10{fill-rule:evenodd;clip-rule:evenodd;fill:#EDB98A;}
	.st11{filter:url(#Adobe_OpacityMaskFilter_3_);}
	.st12{mask:url(#mask-6_2_);fill-rule:evenodd;clip-rule:evenodd;fill-opacity:0.1;}
	.st13{filter:url(#Adobe_OpacityMaskFilter_4_);}
	.st14{mask:url(#react-mask-952_1_);}
	.st15{filter:url(#Adobe_OpacityMaskFilter_5_);}
	.st16{opacity:0.6;mask:url(#react-mask-952_2_);}
	.st17{fill-rule:evenodd;clip-rule:evenodd;fill-opacity:0.16;}
	.st18{fill-rule:evenodd;clip-rule:evenodd;fill-opacity:0.7;}
	.st19{filter:url(#Adobe_OpacityMaskFilter_6_);}
	.st20{mask:url(#react-mask-934_1_);fill-rule:evenodd;clip-rule:evenodd;fill:#FFFFFF;}
	.st21{filter:url(#Adobe_OpacityMaskFilter_7_);}
	.st22{mask:url(#react-mask-934_2_);}
	.st23{fill-rule:evenodd;clip-rule:evenodd;fill:#FF4F6D;}
	.st24{fill-rule:evenodd;clip-rule:evenodd;fill-opacity:0.6;}
	.st25{filter:url(#Adobe_OpacityMaskFilter_8_);}
	.st26{mask:url(#react-mask-925_1_);}
	.st27{fill-rule:evenodd;clip-rule:evenodd;fill:#28354B;}
	.st28{filter:url(#Adobe_OpacityMaskFilter_9_);}
	.st29{mask:url(#react-mask-924_1_);}
	.st30{fill-rule:evenodd;clip-rule:evenodd;fill:#4A312C;}
</style>
<desc
   id="desc4">Created with getavataaars.com</desc>
<g
   id="g176">
	<g
   id="g174"
   transform="translate(-825.000000, -1100.000000)">
		<g
   id="g172"
   transform="translate(825.000000, 1100.000000)">
			<g
   transform="translate(12.000000, 40.000000)"
   id="Circle">
				<g
   id="Circle-Background">
					<circle
   id="circle6"
   r="120"
   cy="120"
   cx="120"
   class="st0" />
				</g>
				<defs
   id="defs12">
					<filter
   height="240"
   width="240"
   y="0"
   x="0"
   filterUnits="userSpaceOnUse"
   id="Adobe_OpacityMaskFilter">
						<feColorMatrix
   id="feColorMatrix9"
   values="1 0 0 0 0  0 1 0 0 0  0 0 1 0 0  0 0 0 1 0"
   type="matrix" />
					</filter>
				</defs>
				<mask
   id="mask-2_1_"
   height="240"
   width="240"
   y="0"
   x="0"
   maskUnits="userSpaceOnUse">
					<g
   id="g15"
   class="st1">
						<circle
   r="120"
   cy="120"
   cx="120"
   class="st2"
   id="path-1_1_" />
					</g>
				</mask>
				<g
   id="g20"
   mask="url(#mask-2_1_)"
   class="st3">
					<rect
   id="rect18"
   height="240"
   width="240"
   class="st4" />
				</g>
			</g>
			<g
   id="Mask">
			</g>
			<defs
   id="defs27">
				<filter
   height="280"
   width="265"
   y="0"
   x="-1"
   filterUnits="userSpaceOnUse"
   id="Adobe_OpacityMaskFilter_1_">
					<feColorMatrix
   id="feColorMatrix24"
   values="1 0 0 0 0  0 1 0 0 0  0 0 1 0 0  0 0 0 1 0"
   type="matrix" />
				</filter>
			</defs>
			<mask
   id="mask-4_1_"
   height="280"
   width="265"
   y="0"
   x="-1"
   maskUnits="userSpaceOnUse">
				<g
   id="g30"
   class="st5">
					<path
   d="M12,160c0,66.3,53.7,120,120,120s120-53.7,120-120h12V0H0v160H12z"
   class="st2"
   id="path-3_1_" />
				</g>
			</mask>
			<g
   mask="url(#mask-4_1_)"
   class="st6"
   id="Avataaar">
				<g
   transform="translate(32.000000, 36.000000)"
   id="Body">
					<g
   id="g35">
						<path
   id="path33"
   d="M124,144.6V163h4l0,0c39.8,0,72,32.2,72,72v9H0v-9c0-39.8,32.2-72,72-72l0,0h4v-18.4        c-17.2-8.2-29.6-24.9-31.7-44.7C38.5,99.1,34,94.1,34,88V74c0-5.9,4.3-10.9,10-11.8V56l0,0c0-30.9,25.1-56,56-56l0,0l0,0        c30.9,0,56,25.1,56,56v6.2c5.7,1,10,5.9,10,11.8v14c0,6.1-4.5,11.1-10.3,11.9C153.6,119.7,141.2,136.4,124,144.6z"
   class="st7" />
					</g>
					<defs
   id="defs40">
						<filter
   height="244"
   width="264"
   y="0"
   x="-32"
   filterUnits="userSpaceOnUse"
   id="Adobe_OpacityMaskFilter_2_">
							<feColorMatrix
   id="feColorMatrix37"
   values="1 0 0 0 0  0 1 0 0 0  0 0 1 0 0  0 0 0 1 0"
   type="matrix" />
						</filter>
					</defs>
					<mask
   id="mask-6_1_"
   height="244"
   width="264"
   y="0"
   x="-32"
   maskUnits="userSpaceOnUse">
						<g
   id="g43"
   class="st8">
							<path
   d="M124,144.6V163h4l0,0c39.8,0,72,32.2,72,72v9H0v-9c0-39.8,32.2-72,72-72l0,0h4v-18.4         c-17.2-8.2-29.6-24.9-31.7-44.7C38.5,99.1,34,94.1,34,88V74c0-5.9,4.3-10.9,10-11.8V56l0,0c0-30.9,25.1-56,56-56l0,0l0,0         c30.9,0,56,25.1,56,56v6.2c5.7,1,10,5.9,10,11.8v14c0,6.1-4.5,11.1-10.3,11.9C153.6,119.7,141.2,136.4,124,144.6z"
   class="st2"
   id="path-5_1_" />
						</g>
					</mask>
					<g
   id="g49"
   mask="url(#mask-6_1_)"
   class="st9">
						<g
   transform="translate(-32.000000, 0.000000)"
   id="Color">
							<rect
   id="rect46"
   height="244"
   width="264"
   class="st10" />
						</g>
					</g>
					<defs
   id="defs54">
						<filter
   height="79"
   width="112"
   y="79"
   x="44"
   filterUnits="userSpaceOnUse"
   id="Adobe_OpacityMaskFilter_3_">
							<feColorMatrix
   id="feColorMatrix51"
   values="1 0 0 0 0  0 1 0 0 0  0 0 1 0 0  0 0 0 1 0"
   type="matrix" />
						</filter>
					</defs>
					<mask
   id="mask-6_2_"
   height="79"
   width="112"
   y="79"
   x="44"
   maskUnits="userSpaceOnUse">
						<g
   id="g57"
   class="st11">
							<path
   d="M124,144.6V163h4l0,0c39.8,0,72,32.2,72,72v9H0v-9c0-39.8,32.2-72,72-72l0,0h4v-18.4         c-17.2-8.2-29.6-24.9-31.7-44.7C38.5,99.1,34,94.1,34,88V74c0-5.9,4.3-10.9,10-11.8V56l0,0c0-30.9,25.1-56,56-56l0,0l0,0         c30.9,0,56,25.1,56,56v6.2c5.7,1,10,5.9,10,11.8v14c0,6.1-4.5,11.1-10.3,11.9C153.6,119.7,141.2,136.4,124,144.6z"
   class="st2"
   id="path-5_2_" />
						</g>
					</mask>
					<path
   mask="url(#mask-6_2_)"
   d="M156,79v23c0,30.9-25.1,56-56,56s-56-25.1-56-56V79v15c0,30.9,25.1,56,56,56       s56-25.1,56-56V79z"
   class="st12"
   id="Neck-Shadow" />
				</g>
				<g
   id="g92"
   transform="translate(0.000000, 170.000000)">
					<g
   id="Clothes">
						<path
   id="path62"
   d="M166,29.3c37,3,66,34,66,71.8v8.9H32v-8.9C32,63,61.6,31.8,99,29.2c0,0.4,0,0.7,0,1.1        c0,11.9,15,21.5,33.5,21.5S166,42.2,166,30.3C166,30,166,29.6,166,29.3z"
   class="st0" />
					</g>
					<defs
   id="defs68">
						<filter
   height="110"
   width="264"
   y="0"
   x="0"
   filterUnits="userSpaceOnUse"
   id="Adobe_OpacityMaskFilter_4_">
							<feColorMatrix
   id="feColorMatrix65"
   values="1 0 0 0 0  0 1 0 0 0  0 0 1 0 0  0 0 0 1 0"
   type="matrix" />
						</filter>
					</defs>
					<mask
   id="react-mask-952_1_"
   height="110"
   width="264"
   y="0"
   x="0"
   maskUnits="userSpaceOnUse">
						<g
   id="g71"
   class="st13">
							<path
   d="M166,29.3c37,3,66,34,66,71.8v8.9H32v-8.9C32,63,61.6,31.8,99,29.2         c0,0.4,0,0.7,0,1.1c0,11.9,15,21.5,33.5,21.5S166,42.2,166,30.3C166,30,166,29.6,166,29.3z"
   class="st2"
   id="react-path-951_1_" />
						</g>
					</mask>
					<g
   id="g76"
   mask="url(#react-mask-952_1_)"
   class="st14">
						<rect
   id="rect74"
   height="110"
   width="264"
   class="st2" />
					</g>
					<defs
   id="defs81">
						<filter
   height="53.8"
   width="79.3"
   y="4.9"
   x="92.9"
   filterUnits="userSpaceOnUse"
   id="Adobe_OpacityMaskFilter_5_">
							<feColorMatrix
   id="feColorMatrix78"
   values="1 0 0 0 0  0 1 0 0 0  0 0 1 0 0  0 0 0 1 0"
   type="matrix" />
						</filter>
					</defs>
					<mask
   id="react-mask-952_2_"
   height="53.8"
   width="79.3"
   y="4.9"
   x="92.9"
   maskUnits="userSpaceOnUse">
						<g
   id="g84"
   class="st15">
							<path
   d="M166,29.3c37,3,66,34,66,71.8v8.9H32v-8.9C32,63,61.6,31.8,99,29.2         c0,0.4,0,0.7,0,1.1c0,11.9,15,21.5,33.5,21.5S166,42.2,166,30.3C166,30,166,29.6,166,29.3z"
   class="st2"
   id="react-path-951_2_" />
						</g>
					</mask>
					<g
   mask="url(#react-mask-952_2_)"
   class="st16"
   id="Shadowy">
						<g
   id="g89"
   transform="translate(92.000000, 4.000000)">
							<ellipse
   id="ellipse87"
   ry="26.9"
   rx="39.6"
   cy="27.8"
   cx="40.5"
   class="st17" />
						</g>
					</g>
				</g>
				<g
   transform="translate(76.000000, 82.000000)"
   id="Face">
					<g
   id="g123"
   transform="translate(2.000000, 52.000000)">
						<g
   id="Mouth">
							<path
   id="path94"
   d="M35.1,15.1C36.2,24.6,44.2,32,54,32c9.8,0,17.9-7.4,18.9-17c0.1-0.8-0.8-2-1.8-2c-14.9,0-26.3,0-34,0         C36,13,35,14.2,35.1,15.1z"
   class="st18" />
						</g>
						<defs
   id="defs100">
							<filter
   height="16"
   width="31"
   y="2"
   x="39"
   filterUnits="userSpaceOnUse"
   id="Adobe_OpacityMaskFilter_6_">
								<feColorMatrix
   id="feColorMatrix97"
   values="1 0 0 0 0  0 1 0 0 0  0 0 1 0 0  0 0 0 1 0"
   type="matrix" />
							</filter>
						</defs>
						<mask
   id="react-mask-934_1_"
   height="16"
   width="31"
   y="2"
   x="39"
   maskUnits="userSpaceOnUse">
							<g
   id="g103"
   class="st19">
								<path
   d="M35.1,15.1C36.2,24.6,44.2,32,54,32c9.8,0,17.9-7.4,18.9-17          c0.1-0.8-0.8-2-1.8-2c-14.9,0-26.3,0-34,0C36,13,35,14.2,35.1,15.1z"
   class="st2"
   id="react-path-933_1_" />
							</g>
						</mask>
						<path
   mask="url(#react-mask-934_1_)"
   d="M44,2h21c2.8,0,5,2.2,5,5v6c0,2.8-2.2,5-5,5H44c-2.8,0-5-2.2-5-5V7C39,4.2,41.2,2,44,2z"
   class="st20"
   id="Teeth" />
						<defs
   id="defs110">
							<filter
   height="22"
   width="32"
   y="24"
   x="38"
   filterUnits="userSpaceOnUse"
   id="Adobe_OpacityMaskFilter_7_">
								<feColorMatrix
   id="feColorMatrix107"
   values="1 0 0 0 0  0 1 0 0 0  0 0 1 0 0  0 0 0 1 0"
   type="matrix" />
							</filter>
						</defs>
						<mask
   id="react-mask-934_2_"
   height="22"
   width="32"
   y="24"
   x="38"
   maskUnits="userSpaceOnUse">
							<g
   id="g113"
   class="st21">
								<path
   d="M35.1,15.1C36.2,24.6,44.2,32,54,32c9.8,0,17.9-7.4,18.9-17          c0.1-0.8-0.8-2-1.8-2c-14.9,0-26.3,0-34,0C36,13,35,14.2,35.1,15.1z"
   class="st2"
   id="react-path-933_2_" />
							</g>
						</mask>
						<g
   mask="url(#react-mask-934_2_)"
   class="st22"
   id="Tongue">
							<g
   id="g120"
   transform="translate(38.000000, 24.000000)">
								<circle
   id="circle116"
   r="11"
   cy="11"
   cx="11"
   class="st23" />
								<circle
   id="circle118"
   r="11"
   cy="11"
   cx="21"
   class="st23" />
							</g>
						</g>
					</g>
					<g
   id="g126"
   transform="translate(28.000000, 40.000000)">
						<path
   d="M16,8c0,4.4,5.4,8,12,8l0,0c6.6,0,12-3.6,12-8"
   class="st17"
   id="Nose" />
					</g>
					<g
   id="g131"
   transform="translate(0.000000, 8.000000)">
						<path
   d="M16.2,22.4C18,18.6,22.2,16,27,16c4.8,0,9,2.6,10.8,6.4c0.6,1.1-0.2,2-1,1.4        c-2.5-2.1-5.9-3.4-9.8-3.4c-3.7,0-7.1,1.2-9.6,3.2C16.5,24.3,15.6,23.6,16.2,22.4z"
   class="st24"
   id="Squint" />
						<path
   id="path129"
   d="M74.2,22.4C76,18.6,80.2,16,85,16c4.8,0,9,2.6,10.8,6.4c0.6,1.1-0.2,2-1,1.4c-2.5-2.1-5.9-3.4-9.8-3.4        c-3.7,0-7.1,1.2-9.6,3.2C74.5,24.3,73.6,23.6,74.2,22.4z"
   class="st24" />
					</g>
					<g
   id="g136">
						<path
   d="M26.5,6.1c-5.8,0.3-15.2,4.5-15,10.3c0,0.2,0.3,0.3,0.4,0.1c2.8-3,22.3-5.9,29.2-4.4        c0.6,0.1,1.1-0.5,0.7-0.9C38.5,7.5,31.7,5.9,26.5,6.1"
   class="st24"
   id="Eyebrow" />
						<path
   id="path134"
   d="M86.5,6.1c5.8,0.3,15.2,4.5,15,10.3c0,0.2-0.3,0.3-0.4,0.1c-2.8-3-22.3-5.9-29.2-4.4        c-0.6,0.1-1.1-0.5-0.7-0.9C74.5,7.5,81.3,5.9,86.5,6.1"
   class="st24" />
					</g>
				</g>
				<g
   id="Top">
					<defs
   id="defs142">
						<filter
   height="280"
   width="264"
   y="0"
   x="-1"
   filterUnits="userSpaceOnUse"
   id="Adobe_OpacityMaskFilter_8_">
							<feColorMatrix
   id="feColorMatrix139"
   values="1 0 0 0 0  0 1 0 0 0  0 0 1 0 0  0 0 0 1 0"
   type="matrix" />
						</filter>
					</defs>
					<mask
   id="react-mask-925_1_"
   height="280"
   width="264"
   y="0"
   x="-1"
   maskUnits="userSpaceOnUse">
						<g
   id="g145"
   class="st25">
							<rect
   height="280"
   width="264"
   class="st2"
   id="react-path-927_1_" />
						</g>
					</mask>
					<g
   id="g168"
   mask="url(#react-mask-925_1_)"
   class="st26">
						<g
   id="g166"
   transform="translate(-1.000000, 0.000000)">
							<g
   id="Short-Hair">
								<path
   id="path148"
   d="M183.7,38.9c5.4-5,6.7-15,3.6-21.5c-3.8-8-11.4-9-18.7-5.5c-6.9,3.3-13.1,4.4-20.6,2.8          c-7.3-1.5-14.1-4.3-21.6-4.7C114,9.3,102,13.9,93.6,23.1c-1.6,1.8-2.9,3.8-4.1,5.8c-1,1.6-2.1,3.4-2.5,5.3          c-0.2,0.9,0.2,3.1-0.3,3.8c-0.5,0.8-2.3,1.5-3.1,2.1c-1.6,1.2-2.9,2.5-4.2,4c-2.7,3.2-4.1,6.6-5.4,10.6          c-4.1,13.2-4.5,29,0.9,42c0.7,1.7,2.9,5.4,4.2,1.6c0.3-0.7-0.3-3.2-0.3-3.9c0-2.7,1.5-20.7,8-30.8c2.1-3.3,12-15.6,14-15.7          c1.1,1.7,11.9,12.5,39.9,11.2c12.7-0.6,22.4-6.3,24.7-8.7c1,5.5,13,13.8,14.8,17.2c5.3,9.8,6.4,30.3,8.4,30.3          s3.5-5.2,3.9-6.2c3.1-7.4,3.6-16.6,3.3-24.6C195.5,57,191.3,45.9,183.7,38.9z"
   class="st27" />
							</g>
							<defs
   id="defs154">
								<filter
   height="280"
   width="264"
   y="0"
   x="0"
   filterUnits="userSpaceOnUse"
   id="Adobe_OpacityMaskFilter_9_">
									<feColorMatrix
   id="feColorMatrix151"
   values="1 0 0 0 0  0 1 0 0 0  0 0 1 0 0  0 0 0 1 0"
   type="matrix" />
								</filter>
							</defs>
							<mask
   id="react-mask-924_1_"
   height="280"
   width="264"
   y="0"
   x="0"
   maskUnits="userSpaceOnUse">
								<g
   id="g157"
   class="st28">
									<path
   d="M183.7,38.9c5.4-5,6.7-15,3.6-21.5c-3.8-8-11.4-9-18.7-5.5           c-6.9,3.3-13.1,4.4-20.6,2.8c-7.3-1.5-14.1-4.3-21.6-4.7C114,9.3,102,13.9,93.6,23.1c-1.6,1.8-2.9,3.8-4.1,5.8           c-1,1.6-2.1,3.4-2.5,5.3c-0.2,0.9,0.2,3.1-0.3,3.8c-0.5,0.8-2.3,1.5-3.1,2.1c-1.6,1.2-2.9,2.5-4.2,4           c-2.7,3.2-4.1,6.6-5.4,10.6c-4.1,13.2-4.5,29,0.9,42c0.7,1.7,2.9,5.4,4.2,1.6c0.3-0.7-0.3-3.2-0.3-3.9           c0-2.7,1.5-20.7,8-30.8c2.1-3.3,12-15.6,14-15.7c1.1,1.7,11.9,12.5,39.9,11.2c12.7-0.6,22.4-6.3,24.7-8.7           c1,5.5,13,13.8,14.8,17.2c5.3,9.8,6.4,30.3,8.4,30.3s3.5-5.2,3.9-6.2c3.1-7.4,3.6-16.6,3.3-24.6           C195.5,57,191.3,45.9,183.7,38.9z"
   class="st2"
   id="react-path-926_1_" />
								</g>
							</mask>
							<g
   id="g164"
   mask="url(#react-mask-924_1_)"
   class="st29">
								<g
   id="g162"
   transform="translate(0.000000, 0.000000) ">
									<rect
   id="rect160"
   height="280"
   width="264"
   class="st30" />
								</g>
							</g>
						</g>
					</g>
				</g>
			</g>
		</g>
	</g>
</g>
<path
   id="path185"
   d="M 75.587056,99.123847 C 74.189513,97.726306 72.104231,91.873644 71.016804,86.296743 70.685131,84.595752 70.385439,80.876946 70.281382,77.171094 70.077121,69.896572 70.667721,64.115788 72.229732,58.100689 74.630158,48.856967 77.89431,43.550916 83.531966,39.728311 l 2.364295,-1.603107 0.186362,-2.343664 c 0.450664,-5.667457 6.750713,-14.078441 14.168277,-18.915596 7.19923,-4.694767 14.12851,-6.701559 22.96744,-6.65161 5.42982,0.03069 7.87476,0.465509 18.367,3.266505 11.02547,2.943346 16.2876,2.74094 24.96689,-0.960344 4.55154,-1.941004 5.64478,-2.214859 8.84946,-2.216777 2.27292,-0.0014 3.0239,0.151179 4.72859,0.96047 8.23994,3.911864 10.24291,17.501797 3.83162,25.997132 l -1.35609,1.796904 1.85724,1.947132 c 5.95083,6.238821 9.60697,15.753339 10.20079,26.545911 0.26469,4.810687 -0.27812,12.599922 -1.17564,16.870314 -1.03241,4.912193 -3.38845,11.149323 -4.77294,12.635403 -1.48483,1.593775 -1.65201,1.181729 -3.66835,-9.041534 -1.88817,-9.573328 -2.89603,-13.589349 -4.42841,-17.645803 -1.056,-2.795403 -1.11063,-2.863812 -6.70092,-8.39136 -6.08914,-6.02079 -7.66104,-7.819907 -8.78968,-10.06018 -0.40106,-0.796068 -0.83736,-1.378404 -0.96956,-1.294083 -0.1322,0.08432 -1.27616,0.835838 -2.54212,1.670039 -4.30075,2.833948 -10.91301,5.210577 -17.11924,6.153127 -4.26016,0.646996 -14.3769,0.635982 -19.48812,-0.02121 -10.37983,-1.334644 -18.83034,-4.641792 -23.98575,-9.386941 l -1.423214,-1.309954 -0.9952,0.708646 c -2.379774,1.694547 -10.871075,11.768228 -13.325712,15.808996 -1.57847,2.598441 -3.023598,6.076476 -4.288495,10.321256 -1.996345,6.6994 -3.529209,16.960796 -3.16979,21.21941 0.309467,3.666737 -0.577893,4.992217 -2.233643,3.336465 z"
   style="fill:#000000;stroke-width:0.337756" /><path
   id="path187"
   d="m 87.75392,97.582145 c 0,-3.002556 5.536106,-7.288296 11.301361,-8.748873 5.515579,-1.397323 13.805259,0.276928 17.519949,3.538475 0.70053,0.615067 1.15189,1.227759 1.00303,1.361537 -0.14887,0.133779 -1.33459,0.120352 -2.63495,-0.02984 -6.07425,-0.701562 -20.221577,1.299034 -25.416169,3.59414 -1.43554,0.634259 -1.773221,0.688448 -1.773221,0.284558 z"
   style="fill:#000000;stroke-width:0.337756" /><path
   id="path189"
   d="m 175.49533,97.375202 c -4.2689,-2.223274 -19.24329,-4.385772 -25.42537,-3.671755 -1.30036,0.150189 -2.48609,0.163616 -2.63495,0.02984 -0.14886,-0.133778 0.3025,-0.74647 1.00303,-1.361537 3.71953,-3.26579 12.03254,-4.941284 17.51995,-3.531161 5.76737,1.482065 11.30136,5.760645 11.30136,8.7376 0,0.653033 -0.15453,0.635251 -1.76402,-0.202984 z"
   style="fill:#000000;stroke-width:0.337756" /><path
   id="path191"
   d="m 92.144753,113.18525 c 0,-0.90575 2.250559,-3.72357 3.859589,-4.83241 4.922478,-3.39225 12.193178,-2.56619 16.057948,1.82443 1.95851,2.22498 2.33728,4.26055 0.5858,3.14813 -5.96466,-3.78834 -12.54044,-4.09804 -17.852196,-0.84077 -2.074056,1.27186 -2.651141,1.42436 -2.651141,0.70062 z"
   style="fill:#000000;stroke-width:0.337756" /><path
   id="path193"
   d="m 150.23884,113.00575 c 0,-0.98859 2.02229,-3.44108 3.85357,-4.67335 4.8269,-3.24801 11.58644,-2.63969 15.50837,1.39568 1.51028,1.55397 2.5344,3.42182 2.10925,3.84698 -0.12988,0.12987 -0.7203,-0.0547 -1.31205,-0.41016 -3.94524,-2.36994 -6.52545,-3.05523 -10.53308,-2.79756 -2.88314,0.18537 -5.5101,1.02047 -7.6364,2.42759 -1.55571,1.02952 -1.98966,1.0755 -1.98966,0.21082 z"
   style="fill:#000000;stroke-width:0.337756" /><path
   id="path195"
   d="m 117.98113,159.51001 c -1.73879,-2.01183 -3.09796,-4.44778 -3.88573,-6.96416 -0.89885,-2.87121 -0.87671,-4.25801 0.0787,-4.92718 0.88268,-0.61825 2.6269,-0.70178 2.6269,-0.12579 0,1.16687 1.50736,3.38135 2.72419,4.00213 1.22045,0.62263 2.03487,0.66422 13.00647,0.66422 11.40754,0 11.7378,-0.0187 13.01705,-0.73769 1.21435,-0.68251 2.66362,-2.82008 2.66362,-3.92866 0,-0.61596 1.17961,-0.47373 1.80531,0.21767 1.51159,1.67028 -0.57823,7.84195 -3.99333,11.79313 l -1.23919,1.43372 -1.13737,-0.86751 c -2.68437,-2.04748 -6.91209,-2.73654 -10.11601,-1.64878 -1.37905,0.4682 -1.68437,0.4682 -3.06342,0 -3.19978,-1.08635 -7.86823,-0.31037 -10.26479,1.70621 l -0.97776,0.82273 z"
   style="fill:#000000;stroke-width:0.337756" /></svg>
